# xmcd
#
# Track frame offsets: 
#        183
#        12398
#        25803
#        36303
#        48970
#        62208
#        75253
#        88618
#        100488
#        114203
#        125095
#        140033
#        153170
#        166128
#        180370
#        192575
#        207155
#        223015
#        239538
#        254803
#        268568
#        280593
#        294215
#        306335
#        317343
#        330430
#
# Disc length: 4569 seconds
#
# Revision: 4
# Processed by: cddbd v1.5.2PL0 Copyright (c) Steve Scherf et al.
# Submitted via: ExactAudioCopyFreeDBPlugin 1.0
#
DISCID=6f11d71a
DTITLE=Muddy Waters - The Complete Muddy Waters on Chess Records, 1947
DTITLE=1967 [Charly Red Box]
DYEAR=1992
DGENRE=Blues
TTITLE0=Same Thing
TTITLE1=You Can't Lose Want You Ain't Had
TTITLE2=My John the Conquer Root
TTITLE3=Short Dress Woman
TTITLE4=Put Me in Your Lay Away
TTITLE5=My Dog Can't Bark
TTITLE6=I Got a Rich Man's Woman
TTITLE7=Making Friends
TTITLE8=Betty and Dupree
TTITLE9=Trouble
TTITLE10=Black Night
TTITLE11=Trouble in Mind
TTITLE12=Take My Advice
TTITLE13=Hard Loser
TTITLE14=Going Back to Memphis
TTITLE15=Piney Brown Blues
TTITLE16=Sweet Little Angel
TTITLE17=Corine, Corina
TTITLE18=It's All Over
TTITLE19=County Jail
TTITLE20=Two Steps Forward
TTITLE21=Blind Man
TTITLE22=Find Yourself Another Fool
TTITLE23=Kinfolk's Blues
TTITLE24=Birdnest on the Ground
TTITLE25=When the Eagle Flies
EXTD=
EXTT0=
EXTT1=
EXTT2=
EXTT3=
EXTT4=
EXTT5=
EXTT6=
EXTT7=
EXTT8=
EXTT9=
EXTT10=
EXTT11=
EXTT12=
EXTT13=
EXTT14=
EXTT15=
EXTT16=
EXTT17=
EXTT18=
EXTT19=
EXTT20=
EXTT21=
EXTT22=
EXTT23=
EXTT24=
EXTT25=
PLAYORDER=
